<svg version="1.1" id="Layer_1" xmlns="http://www.w3.org/2000/svg" xmlns:xlink="http://www.w3.org/1999/xlink" x="0px" y="0px"
	 viewBox="0 0 459.1 459.1" style="enable-background:new 0 0 459.1 459.1;" xml:space="preserve">
<style type="text/css">
	.st0{fill:#AAAAAA;}
</style>
<g>
	<g>
		<path class="st0" d="M425.6,335.9l-22.6-101.2c-0.6-2.8-2.8-5-5.6-5.8c-2.8-0.7-5.7,0.1-7.7,2.3L320.1,308
			c-2.1,2.3-2.6,5.7-1.2,8.5c1.3,2.8,4.3,4.6,7.4,4.4l26.5-1.5c-4.4,15-15.3,29-31.8,40.6c-13.7,9.6-30,16.7-47.9,21.1
			c-5.6,1.4-11.6,0.1-16.2-3.5c-4.6-3.6-7.2-9.1-7.2-14.9V189.6c18.3-6.7,32.3-22.2,36.9-41.3h57c8.8,0,15.9-7.1,15.9-15.9
			s-7.1-15.9-15.9-15.9h-58.3c-5.6-17.1-18.8-30.7-35.6-36.8V68.9c10.4-6.6,17.3-18.3,17.3-31.5c0-20.6-16.7-37.3-37.3-37.3
			s-37.3,16.7-37.3,37.3c0,13.3,6.9,24.9,17.3,31.5v10.8c-16.8,6.1-30,19.8-35.6,36.8h-58.3c-8.8,0-15.9,7.1-15.9,15.9
			s7.1,15.9,15.9,15.9h57c4.6,19.1,18.6,34.7,36.9,41.3v173.2c0,5.8-2.7,11.3-7.2,14.9s-10.5,4.9-16.2,3.5
			c-17.9-4.4-34.2-11.5-47.9-21.1c-16.5-11.6-27.4-25.6-31.8-40.6l26.5,1.5c3.1,0.2,6-1.6,7.4-4.4c1.3-2.8,0.9-6.2-1.2-8.5
			l-69.7-76.8c-1.9-2.1-4.9-3-7.7-2.3c-2.8,0.7-4.9,3-5.6,5.8L33.5,335.9c-0.7,3.1,0.5,6.2,3.1,8c2.6,1.8,6,1.9,8.6,0.2l22.5-14.5
			c6.7,24.1,23,45.9,47.6,63.2c12.9,9,27.5,16.4,43.2,21.9c26.7,9.3,51.1,24.5,71,44.4l0,0l0,0c20.1-20.1,44.2-35.1,71-44.4
			c15.8-5.5,30.3-12.8,43.2-21.9c24.6-17.2,40.9-39.1,47.6-63.2l22.5,14.5c2.6,1.7,6,1.6,8.6-0.2S426.2,339,425.6,335.9z
			 M229.5,161.2c-14.7,0-26.7-12-26.7-26.7c0-14.7,12-26.7,26.7-26.7s26.7,12,26.7,26.7S244.2,161.2,229.5,161.2z"/>
	</g>
</g>
</svg>